<svg xmlns="http://www.w3.org/2000/svg" width="362" height="362" viewBox="96.5 28 220 220"><path d="M0 177.174v177.174h400V0H0v177.174M210.426 35.64c2.934 1.668 9.737 5.518 15.117 8.555 15.44 8.717 26.57 15.017 34.602 19.585 4.085 2.323 8.569 4.848 9.964 5.611 1.395.763 5.878 3.289 9.963 5.612 4.086 2.323 9.808 5.557 12.717 7.186l5.289 2.961.266 52.884c.145 29.086.167 53.042.047 53.235-.119.194-3.434 2.181-7.366 4.415a45989.631 45989.631 0 0 0-54.612 31.137c-13.252 7.571-29.366 16.723-30.538 17.345-.749.396-1.616-.01-9.058-4.248-8.806-5.014-26.373-14.952-29.063-16.442-.897-.496-5.218-2.936-9.602-5.422-19.149-10.858-25.782-14.604-26.63-15.04-.498-.256-5.145-2.895-10.326-5.864l-9.421-5.399-.091-53.094-.092-53.094 1.903-1.045c1.047-.574 7.121-4.037 13.498-7.694a4780.807 4780.807 0 0 1 12.137-6.947c.299-.163 7.473-4.262 15.942-9.109 8.47-4.847 15.644-8.917 15.942-9.045.299-.128 7.881-4.467 16.848-9.642 8.968-5.175 16.513-9.424 16.767-9.441.255-.017 2.864 1.333 5.797 3m-12.781 42.141c-37.886 4.748-61.96 43.637-49.753 80.371 7.315 22.014 26.851 38.169 49.481 40.917l1.902.231v-11.52l-3.17-.61c-29.711-5.725-47.353-35.536-38.078-64.344 5.445-16.913 20.838-30.141 38.531-33.11l2.536-.426.1-5.877c.055-3.232-.027-5.852-.181-5.822-.155.029-.77.115-1.368.19m13.001.28c-.088.227-.114 2.842-.058 5.811l.1 5.398 3.442.619c20.887 3.754 37.263 21.18 39.893 42.449 3.19 25.796-13.912 49.493-39.451 54.667l-4.082.827.099 5.631.099 5.631 1.993-.11c20.814-1.151 41.666-18.644 49.751-41.738 9.524-27.204-4.279-60.42-30.491-73.371-7.636-3.772-20.709-7.342-21.295-5.814m-12.956 22.502c-18.887 3.753-31.653 20.048-30.906 39.45.251 6.519 1.186 10.397 3.742 15.513 17.328 34.679 68.746 25.204 72.63-13.383 2.555-25.389-20.56-46.529-45.466-41.58m12.479 10.821c20.951 3.738 29.577 30.051 15.008 45.786-17.011 18.374-47.656 6.435-47.638-18.561.012-17.589 15.272-30.322 32.63-27.225m-9.082 11.041c-14.551 3.844-17.17 23.034-4.159 30.478 9.531 5.453 21.811-.105 24.131-10.924 2.532-11.804-8.484-22.589-19.972-19.554m7.155 11.568c3.349 2.385 2.834 7.791-.917 9.627-4.224 2.068-9.192-2.287-7.715-6.761 1.134-3.437 5.701-4.953 8.632-2.866" fill="#4463ab" fill-rule="evenodd"/></svg>